<svg width="32" height="32" viewBox="0 0 32 32" fill="none" xmlns="http://www.w3.org/2000/svg">
<rect width="32" height="32" rx="3" fill="#664C1B"/>
<path fill-rule="evenodd" clip-rule="evenodd" d="M25.75 6C24.6454 6 23.75 6.89543 23.75 8C23.75 9.10457 24.6454 10 25.75 10C26.8546 10 27.75 9.10457 27.75 8C27.75 6.89543 26.8546 6 25.75 6ZM8.25 9.5H4.25V26H8.25V20.5L16.5833 20.5L20.25 26H24.75L20.6114 20.4819C22.119 20.3347 24.25 19.2698 24.25 16.5V13C24.25 10 21.25 9.5 19.75 9.5H8.25ZM8.75 17C8.56786 17 8.39709 16.9513 8.25 16.8662V13.1338C8.39709 13.0487 8.56786 13 8.75 13H18.75C19.3023 13 19.75 13.4477 19.75 14V16C19.75 16.5523 19.3023 17 18.75 17H8.75Z" fill="white"/>
</svg>
