<svg width="32" height="32" viewBox="0 0 32 32" fill="none" xmlns="http://www.w3.org/2000/svg">
<rect width="32" height="32" rx="3" fill="#664C1B"/>
<path fill-rule="evenodd" clip-rule="evenodd" d="M6.08113 14.6572C12.2551 11.9307 16.3721 10.1332 18.432 9.26474C24.3136 6.78513 25.5357 6.3544 26.3323 6.34018C26.5075 6.33705 26.8992 6.38106 27.1529 6.58976C27.3672 6.76598 27.4262 7.00403 27.4544 7.1711C27.4826 7.33818 27.5177 7.71878 27.4898 8.01617C27.1711 11.4106 25.7919 19.6478 25.0903 23.4496C24.7935 25.0583 24.2089 25.5977 23.643 25.6505C22.4131 25.7652 21.4792 24.8266 20.288 24.0351C18.424 22.7967 17.3709 22.0257 15.5616 20.8171C13.4706 19.4205 14.8261 18.6528 16.0178 17.3983C16.3296 17.07 21.7485 12.0741 21.8534 11.6208C21.8665 11.5642 21.8787 11.3529 21.7549 11.2413C21.631 11.1298 21.4483 11.1679 21.3164 11.1982C21.1294 11.2413 18.1517 13.2362 12.3831 17.1831C11.5379 17.7714 10.7723 18.058 10.0864 18.043C9.33017 18.0265 7.87557 17.6096 6.79422 17.2534C5.46791 16.8164 4.41378 16.5853 4.50557 15.8432C4.55338 15.4566 5.07857 15.0613 6.08113 14.6572Z" fill="white"/>
</svg>
